<?xml version="1.0" encoding="UTF-8" standalone="no"?>
<!-- Created with Inkscape (http://www.inkscape.org/) -->

<svg
   width="14.480616mm"
   height="11.573599mm"
   viewBox="0 0 14.480616 11.573599"
   version="1.1"
   id="svg1"
   xmlns:inkscape="http://www.inkscape.org/namespaces/inkscape"
   xmlns:sodipodi="http://sodipodi.sourceforge.net/DTD/sodipodi-0.dtd"
   xmlns="http://www.w3.org/2000/svg"
   xmlns:svg="http://www.w3.org/2000/svg">
  <sodipodi:namedview
     id="namedview1"
     pagecolor="#ffffff"
     bordercolor="#000000"
     borderopacity="0.25"
     inkscape:showpageshadow="2"
     inkscape:pageopacity="0.0"
     inkscape:pagecheckerboard="0"
     inkscape:deskcolor="#d1d1d1"
     inkscape:document-units="mm" />
  <defs
     id="defs1" />
  <g
     inkscape:label="Layer 1"
     inkscape:groupmode="layer"
     id="layer1"
     transform="translate(-71.005769,-73.262152)">
    <path
       id="path3"
       style="fill:#333333;stroke:#550000;stroke-width:0.00464677;stroke-linecap:round;stroke-miterlimit:3.9"
       d="m 73.920429,84.833428 c -3.190188,-0.126043 1.289307,-7.910458 4.348943,-8.026188 3.176652,-0.120156 7.134238,7.818107 4.620157,7.913981"
       sodipodi:nodetypes="csc" />
    <path
       style="fill:#333333;stroke:#550000;stroke-width:0.001868;stroke-linecap:round;stroke-miterlimit:3.9"
       id="path3-4"
       sodipodi:type="arc"
       sodipodi:cx="78.243614"
       sodipodi:cy="75.644691"
       sodipodi:rx="2.3810544"
       sodipodi:ry="2.3810544"
       sodipodi:start="4.2668843"
       sodipodi:end="4.26541"
       sodipodi:arc-type="arc"
       d="m 77.217586,73.496044 a 2.3810544,2.3810544 0 0 1 3.174297,1.121827 2.3810544,2.3810544 0 0 1 -1.120657,3.174711 2.3810544,2.3810544 0 0 1 -3.175124,-1.119487 2.3810544,2.3810544 0 0 1 1.118317,-3.175536"
       sodipodi:open="true" />
    <g
       id="g4"
       transform="translate(0,-0.35919189)">
      <path
         id="path3-5"
         style="fill:#333333;stroke:#550000;stroke-width:0.00235562;stroke-linecap:round;stroke-miterlimit:3.9"
         d="m 71.563262,81.428243 c -1.617222,-0.0639 0.653597,-4.010099 2.204637,-4.068767 1.610361,-0.06091 3.616605,3.963283 2.342126,4.011885"
         sodipodi:nodetypes="csc" />
      <path
         style="fill:#333333;stroke:#550000;stroke-width:0.000946957;stroke-linecap:round;stroke-miterlimit:3.9"
         id="path3-4-0"
         sodipodi:type="arc"
         sodipodi:cx="73.754837"
         sodipodi:cy="76.770126"
         sodipodi:rx="1.2070431"
         sodipodi:ry="1.2070431"
         sodipodi:start="4.2668843"
         sodipodi:end="4.26541"
         sodipodi:arc-type="arc"
         d="m 73.234706,75.680899 a 1.2070431,1.2070431 0 0 1 1.609167,0.568695 1.2070431,1.2070431 0 0 1 -0.568102,1.609376 1.2070431,1.2070431 0 0 1 -1.609586,-0.567509 1.2070431,1.2070431 0 0 1 0.566916,-1.609794"
         sodipodi:open="true" />
    </g>
    <g
       id="g3">
      <path
         id="path3-5-4"
         style="fill:#333333;stroke:#550000;stroke-width:0.00235562;stroke-linecap:round;stroke-miterlimit:3.9"
         d="m 80.534474,81.069051 c -1.617222,-0.0639 0.653597,-4.010099 2.204637,-4.068767 1.610361,-0.06091 3.616605,3.963283 2.342126,4.011885"
         sodipodi:nodetypes="csc" />
      <path
         style="fill:#333333;stroke:#550000;stroke-width:0.000946957;stroke-linecap:round;stroke-miterlimit:3.9"
         id="path3-4-0-3"
         sodipodi:type="arc"
         sodipodi:cx="82.726059"
         sodipodi:cy="76.410934"
         sodipodi:rx="1.2070431"
         sodipodi:ry="1.2070431"
         sodipodi:start="4.2668843"
         sodipodi:end="4.26541"
         sodipodi:arc-type="arc"
         d="m 82.205928,75.321707 a 1.2070431,1.2070431 0 0 1 1.609167,0.568695 1.2070431,1.2070431 0 0 1 -0.568102,1.609376 1.2070431,1.2070431 0 0 1 -1.609586,-0.567509 1.2070431,1.2070431 0 0 1 0.566916,-1.609794"
         sodipodi:open="true" />
    </g>
  </g>
</svg>
